# xmcd
#
# Track frame offsets: 
#        150
#        14109
#        23935
#        35230
#        47129
#        60264
#        76105
#        88268
#        101118
#        112934
#        125118
#        134854
#        147870
#        158025
#        172144
#        186108
#        198297
#        210798
#        224743
#        235542
#
# Disc length: 3282 seconds
#
# Revision: 2
# Processed by: cddbd v1.5.2PL0 Copyright (c) Steve Scherf et al.
# Submitted via: ExactAudioCopy v1.0b3
#
DISCID=260cd014
DTITLE=Various Artist - Chicago Blues: The Absolutely Essential 3-CD 
DTITLE=Collection [CD2]
DYEAR=2012
DGENRE=Blues
TTITLE0=Howlin' Wolf - Smokestack Lightnin'
TTITLE1=John Lee Hooker - Dimples
TTITLE2=Sonny Boy Williamson - Your Funeral And My Trial
TTITLE3=Buddy Guy - Try To Quit You Baby
TTITLE4=Little Walter - Last Night
TTITLE5=Eddie Boyd - 24 Hours
TTITLE6=Lee Jackson - Fishing In My Pond
TTITLE7=Jimmy Witherspoon - When The Lights Go Out
TTITLE8=Otis Rush - All Your Love
TTITLE9=Junior Wells - Two-Headed Woman
TTITLE10=Magic Sam - Love Me With A Feeling
TTITLE11=Howlin' Wolf - Back Door Man
TTITLE12=Guitar Shorty - You Don't Treat Me Right
TTITLE13=Willie Dixon - Walkin' The Blues
TTITLE14=Etta James - I Just Want To Make Love To You
TTITLE15=Billy Boy Arnold - I Wish You Would
TTITLE16=Little Willie Foster - Crying The Blues
TTITLE17=Lowell Fulson - Tollin' Bells
TTITLE18=Sunnyland Slim - It's You Baby
TTITLE19=Otis Rush - Keep On Loving Me Baby
EXTD=
EXTT0=
EXTT1=
EXTT2=
EXTT3=
EXTT4=
EXTT5=
EXTT6=
EXTT7=
EXTT8=
EXTT9=
EXTT10=
EXTT11=
EXTT12=
EXTT13=
EXTT14=
EXTT15=
EXTT16=
EXTT17=
EXTT18=
EXTT19=
PLAYORDER=
